
<svg width="47px" height="47px" viewBox="0 0 47 47" version="1.1" xmlns="http://www.w3.org/2000/svg" xmlns:xlink="http://www.w3.org/1999/xlink">
    <g id="Welcome" stroke="none" stroke-width="1" fill="none" fill-rule="evenodd">
        <g id="Desktop-HD" transform="translate(-356.000000, -425.000000)" fill="#FF0000" fill-rule="nonzero">
            <g id="Group-2" transform="translate(342.000000, 409.000000)">
                <path d="M61,27.1315789 L51.1052632,37.0263158 L51.1052632,28.3684211 C51.1052632,27.0078947 49.9921053,25.8947368 48.6315789,25.8947368 L33.3442105,25.8947368 L61,53.5505263 L61,27.1315789 Z M17.1415789,16 L14,19.1415789 L20.7531579,25.8947368 L18.9473684,25.8947368 C17.5868421,25.8947368 16.4736842,27.0078947 16.4736842,28.3684211 L16.4736842,53.1052632 C16.4736842,54.4657895 17.5868421,55.5789474 18.9473684,55.5789474 L48.6315789,55.5789474 C49.1510526,55.5789474 49.5963158,55.3810526 49.9673684,55.1336842 L57.8584211,63 L61,59.8584211 L17.1415789,16 Z" id="Shape"></path>
            </g>
        </g>
    </g>
</svg>