<svg width="41px" height="28px" viewBox="0 0 41 28" version="1.1" xmlns="http://www.w3.org/2000/svg" xmlns:xlink="http://www.w3.org/1999/xlink">
    <g id="Welcome" stroke="none" stroke-width="1" fill="none" fill-rule="evenodd">
        <g id="Desktop-HD" transform="translate(-1297.000000, -60.000000)" fill="#FF0000" fill-rule="nonzero">
            <g id="wifi" transform="translate(1297.000000, 60.000000)">
                <path d="M40.6738916,7.68000005 C29.3239317,-2.56187493 11.6714993,-2.55812493 0.326023791,7.68000005 C-0.100632713,8.06500005 -0.108960843,8.71687504 0.303601903,9.11625004 L2.49710321,11.239375 C2.8904472,11.620625 3.52338507,11.62875 3.93210407,11.263125 C13.2801096,2.90812506 27.7185245,2.90625006 37.0684519,11.263125 C37.4771709,11.62875 38.1101088,11.62 38.5034528,11.239375 L40.6969541,9.11625004 C41.1088762,8.71687504 41.1005481,8.06500005 40.6738916,7.68000005 Z M20.4999577,20 C18.235347,20 16.3999553,21.790625 16.3999553,24 C16.3999553,26.209375 18.235347,28 20.4999577,28 C22.7645684,28 24.5999601,26.209375 24.5999601,24 C24.5999601,21.790625 22.7645684,20 20.4999577,20 Z M33.4835123,14.775625 C26.0996642,8.40500005 14.8919231,8.41187505 7.51640308,14.775625 C7.07437156,15.156875 7.06027781,15.81875 7.47988743,16.2225 L9.68620125,18.346875 C10.0705765,18.716875 10.6894206,18.741875 11.0987802,18.396875 C16.4768303,13.86125 24.535257,13.87125 29.9004946,18.396875 C30.3098542,18.741875 30.9286983,18.7175 31.3130735,18.346875 L33.5193873,16.2225 C33.9396376,15.81875 33.9249032,15.15625 33.4835123,14.775625 L33.4835123,14.775625 Z" id="Shape"></path>
            </g>
        </g>
    </g>
</svg>
